<svg width="16" height="16" viewBox="0 0 16 16" fill="none" xmlns="http://www.w3.org/2000/svg">
<path fill-rule="evenodd" clip-rule="evenodd" d="M8.00069 0C5.82802 0 5.55535 0.00938302 4.70201 0.0477382C3.85034 0.0862579 3.26901 0.219431 2.76034 0.414828C2.23417 0.616645 1.78784 0.886613 1.34317 1.32597C0.898169 1.76516 0.624835 2.206 0.419835 2.72552C0.221501 3.22809 0.0865002 3.80243 0.0481668 4.64328C0.01 5.4861 0 5.75558 0 7.90149C0 10.0474 0.0096667 10.3159 0.0483335 11.1587C0.0875002 11.9999 0.222334 12.5741 0.420001 13.0765C0.624502 13.5962 0.897836 14.037 1.34267 14.4762C1.78717 14.9157 2.23351 15.1863 2.75934 15.3882C3.26834 15.5835 3.84984 15.7167 4.70135 15.7552C5.55468 15.7936 5.82718 15.803 7.99969 15.803C10.1725 15.803 10.4444 15.7936 11.2977 15.7552C12.1494 15.7167 12.7314 15.5835 13.2404 15.3882C13.7664 15.1863 14.212 14.9157 14.6565 14.4762C15.1015 14.037 15.3749 13.5962 15.5799 13.0766C15.7765 12.5741 15.9115 11.9997 15.9515 11.1589C15.9899 10.3161 15.9999 10.0474 15.9999 7.90149C15.9999 5.75558 15.9899 5.48627 15.9515 4.64344C15.9115 3.80226 15.7765 3.22809 15.5799 2.72568C15.3749 2.206 15.1015 1.76516 14.6565 1.32597C14.2115 0.886448 13.7665 0.616481 13.2399 0.414828C12.7299 0.219431 12.1482 0.0862579 11.2965 0.0477382C10.4432 0.00938302 10.1715 0 7.99819 0H8.00069ZM7.28315 1.42385C7.49615 1.42352 7.73382 1.42385 8.00082 1.42385C10.1368 1.42385 10.39 1.43142 11.2335 1.46928C12.0135 1.50451 12.4368 1.63324 12.7188 1.74139C13.0921 1.88461 13.3583 2.05581 13.6381 2.33236C13.9181 2.60891 14.0915 2.8723 14.2368 3.24103C14.3463 3.51923 14.4768 3.93735 14.5123 4.70775C14.5506 5.5407 14.559 5.79092 14.559 7.89963C14.559 10.0083 14.5506 10.2586 14.5123 11.0915C14.4766 11.8619 14.3463 12.28 14.2368 12.5582C14.0918 12.927 13.9181 13.1895 13.6381 13.4659C13.3581 13.7425 13.0923 13.9137 12.7188 14.0569C12.4371 14.1655 12.0135 14.2939 11.2335 14.3292C10.3901 14.367 10.1368 14.3752 8.00082 14.3752C5.86466 14.3752 5.61149 14.367 4.76816 14.3292C3.98816 14.2936 3.56483 14.1649 3.28267 14.0567C2.90933 13.9135 2.64267 13.7423 2.36267 13.4657C2.08267 13.1892 1.90934 12.9265 1.764 12.5576C1.6545 12.2794 1.524 11.8612 1.4885 11.0909C1.45017 10.2579 1.4425 10.0077 1.4425 7.89765C1.4425 5.78762 1.45017 5.53872 1.4885 4.70577C1.52417 3.93538 1.6545 3.51726 1.764 3.23873C1.909 2.86999 2.08267 2.60661 2.36267 2.33005C2.64267 2.0535 2.90933 1.8823 3.28267 1.73876C3.56466 1.63011 3.98816 1.50171 4.76816 1.46632C5.50616 1.4334 5.79216 1.42352 7.28315 1.42188V1.42385ZM12.2712 2.73592C11.7413 2.73592 11.3113 3.16011 11.3113 3.68372C11.3113 4.20716 11.7413 4.63184 12.2712 4.63184C12.8012 4.63184 13.2312 4.20716 13.2312 3.68372C13.2312 3.16027 12.8012 2.7356 12.2712 2.7356V2.73592ZM8.00076 3.84375C5.73194 3.84375 3.89246 5.66056 3.89246 7.90141C3.89246 10.1423 5.73194 11.9583 8.00076 11.9583C10.2696 11.9583 12.1084 10.1423 12.1084 7.90141C12.1084 5.66056 10.2694 3.84375 8.00059 3.84375H8.00076ZM8.00067 5.26758C9.47335 5.26758 10.6674 6.44675 10.6674 7.90149C10.6674 9.35607 9.47335 10.5354 8.00067 10.5354C6.52783 10.5354 5.33398 9.35607 5.33398 7.90149C5.33398 6.44675 6.52783 5.26758 8.00067 5.26758Z" fill="white"/>
</svg>
