<svg width="20" height="16" viewBox="0 0 20 16" fill="none" xmlns="http://www.w3.org/2000/svg">
<path fill-rule="evenodd" clip-rule="evenodd" d="M9.93423 4.20384L9.9762 4.88736L9.27672 4.80367C6.73061 4.48283 4.50626 3.39477 2.61766 1.56739L1.69434 0.660678L1.45652 1.33025C0.952892 2.82284 1.27465 4.39913 2.32388 5.45929C2.88346 6.04517 2.75755 6.12886 1.79227 5.78013C1.45652 5.66853 1.16274 5.58484 1.13476 5.62668C1.03683 5.72433 1.37258 6.99373 1.63838 7.49591C2.00211 8.19338 2.74356 8.87691 3.55496 9.28144L4.24045 9.60228L3.42906 9.61623C2.64564 9.61623 2.61766 9.63018 2.7016 9.92312C2.98139 10.8298 4.08657 11.7923 5.31766 12.2108L6.18501 12.5038L5.42957 12.9501C4.3104 13.5918 2.99538 13.9545 1.68035 13.9824C1.05082 13.9964 0.533203 14.0522 0.533203 14.094C0.533203 14.2335 2.23994 15.0147 3.2332 15.3216C6.21299 16.2283 9.75237 15.8377 12.4104 14.2893C14.299 13.1873 16.1876 10.9972 17.0689 8.87691C17.5446 7.747 18.0202 5.68248 18.0202 4.69207C18.0202 4.0504 18.0622 3.9667 18.8456 3.19948C19.3073 2.7531 19.741 2.26487 19.8249 2.12537C19.9648 1.86033 19.9508 1.86033 19.2373 2.09747C18.0482 2.51596 17.8803 2.46016 18.4679 1.83243C18.9016 1.38605 19.4192 0.576981 19.4192 0.33984C19.4192 0.297992 19.2094 0.367739 18.9715 0.493284C18.7197 0.632779 18.1601 0.842021 17.7404 0.967566L16.985 1.20471L16.2995 0.744374C15.9218 0.493284 15.3902 0.214295 15.1104 0.130598C14.3969 -0.0646941 13.3057 -0.0367952 12.6622 0.186396C10.9135 0.814122 9.80833 2.43226 9.93423 4.20384Z" fill="white"/>
</svg>
