<svg width="23" height="16" viewBox="0 0 23 16" fill="none" xmlns="http://www.w3.org/2000/svg">
<path fill-rule="evenodd" clip-rule="evenodd" d="M21.7957 2.46769C21.5397 1.49631 20.7853 0.731398 19.8275 0.471795C18.0916 0 11.1304 0 11.1304 0C11.1304 0 4.16923 0 2.43326 0.471795C1.47541 0.731398 0.721075 1.49631 0.465075 2.46769C0 4.22819 0 7.90149 0 7.90149C0 7.90149 0 11.5747 0.465075 13.3353C0.721075 14.3067 1.47541 15.0716 2.43326 15.3313C4.16923 15.803 11.1304 15.803 11.1304 15.803C11.1304 15.803 18.0916 15.803 19.8275 15.3313C20.7853 15.0716 21.5397 14.3067 21.7957 13.3353C22.2609 11.5747 22.2609 7.90149 22.2609 7.90149C22.2609 7.90149 22.2609 4.22819 21.7957 2.46769Z" fill="white"/>
<path fill-rule="evenodd" clip-rule="evenodd" d="M9.04395 11.6804V4.80957L14.6091 8.24513L9.04395 11.6804Z" fill="#533E2D"/>
</svg>
